<svg width="15" height="15" viewBox="0 0 15 15" fill="none" xmlns="http://www.w3.org/2000/svg">
<path d="M12.5 9.6875C11.7188 9.6875 10.9688 9.5625 10.2688 9.33125C10.05 9.2625 9.80625 9.3125 9.63125 9.48125L8.25625 10.8563C6.4875 9.95625 5.0375 8.5125 4.1375 6.7375L5.5125 5.35625C5.6875 5.19375 5.7375 4.95 5.66875 4.73125C5.4375 4.03125 5.3125 3.28125 5.3125 2.5C5.3125 2.15625 5.03125 1.875 4.6875 1.875H2.5C2.15625 1.875 1.875 2.15625 1.875 2.5C1.875 8.36875 6.63125 13.125 12.5 13.125C12.8438 13.125 13.125 12.8438 13.125 12.5V10.3125C13.125 9.96875 12.8438 9.6875 12.5 9.6875ZM11.875 7.5H13.125C13.125 4.39375 10.6062 1.875 7.5 1.875V3.125C9.91875 3.125 11.875 5.08125 11.875 7.5ZM9.375 7.5H10.625C10.625 5.775 9.225 4.375 7.5 4.375V5.625C8.5375 5.625 9.375 6.4625 9.375 7.5Z" fill="#1B1D1F"/>
</svg>
